<?xml version="1.0" standalone="no"?>
<!DOCTYPE svg PUBLIC "-//W3C//DTD SVG 20010904//EN"
 "http://www.w3.org/TR/2001/REC-SVG-20010904/DTD/svg10.dtd">
<svg version="1.0" xmlns="http://www.w3.org/2000/svg"
 width="1000.000000pt" height="1000.000000pt" viewBox="0 0 1000.000000 1000.000000"
 preserveAspectRatio="xMidYMid meet">
<metadata>
Created by potrace 1.11, written by Peter Selinger 2001-2013
</metadata>
<g transform="translate(0.000000,1000.000000) scale(0.100000,-0.100000)"
fill="#000000" stroke="none">
<path d="M0 5000 l0 -5000 5000 0 5000 0 0 5000 0 5000 -5000 0 -5000 0 0
-5000z m5464 4458 c-3 -18 -15 -65 -25 -104 -42 -157 -9 -244 116 -307 44 -22
256 -89 445 -142 279 -78 404 -130 555 -231 209 -139 354 -341 433 -604 14
-48 17 -149 22 -845 6 -900 -1 -838 91 -895 28 -17 54 -42 60 -58 28 -72 -58
-534 -181 -973 -28 -97 -63 -236 -80 -309 -58 -260 -109 -391 -233 -597 -119
-199 -126 -225 -103 -405 9 -68 22 -201 30 -296 17 -194 30 -234 85 -267 49
-29 121 -95 136 -126 8 -14 42 -111 76 -215 53 -160 68 -194 98 -226 24 -24
119 -80 276 -163 132 -70 305 -162 385 -205 80 -42 208 -110 285 -150 77 -40
165 -86 195 -103 30 -16 102 -54 160 -85 58 -30 213 -112 345 -182 132 -70
312 -165 400 -210 174 -89 227 -132 245 -201 7 -25 10 -193 8 -472 -3 -422 -3
-433 -25 -473 -12 -22 -37 -53 -57 -67 l-35 -27 -4158 0 -4158 0 -38 25 c-20
14 -47 45 -59 68 -23 41 -23 48 -26 472 -2 316 0 442 9 474 19 69 68 110 234
196 192 100 642 338 720 380 33 18 146 78 250 133 105 55 224 118 265 140 41
22 215 113 385 202 171 90 333 176 362 192 88 49 103 75 173 287 75 230 95
261 209 334 62 40 69 61 96 328 46 443 46 458 -23 548 -142 185 -211 345 -286
661 -19 80 -47 178 -60 219 -36 104 -216 962 -216 1028 0 54 27 101 77 129 83
49 77 -10 83 874 l6 785 27 99 c65 242 203 435 404 569 66 44 316 173 488 252
285 131 645 278 1095 447 272 103 338 123 412 127 26 1 27 -1 22 -31z"/>
<path d="M4845 8475 c-27 -7 -75 -14 -106 -14 -58 -1 -119 -19 -224 -66 -33
-14 -82 -36 -110 -48 -108 -45 -241 -109 -256 -123 -9 -8 -48 -25 -88 -39 -39
-13 -84 -33 -99 -43 -15 -10 -90 -52 -167 -92 -77 -40 -160 -88 -185 -107 -72
-54 -239 -223 -280 -283 -70 -103 -122 -286 -141 -495 -6 -66 -13 -123 -16
-128 -13 -21 -44 -317 -49 -467 -5 -132 9 -229 42 -294 15 -28 32 -67 39 -87
13 -37 46 -87 136 -210 l48 -65 -4 -90 c-2 -50 -13 -121 -25 -164 -33 -116
-18 -297 29 -351 12 -14 19 -27 77 -137 33 -63 111 -139 151 -147 62 -13 78
-28 84 -80 4 -28 12 -68 19 -90 9 -28 14 -150 16 -395 3 -195 9 -371 14 -392
10 -36 69 -98 93 -98 7 0 37 -21 67 -46 30 -25 84 -65 120 -90 178 -121 228
-170 369 -358 107 -142 248 -283 317 -317 60 -29 157 -35 227 -15 38 11 113
18 225 22 196 7 188 3 322 135 47 46 99 93 115 103 31 20 65 51 164 146 112
107 177 166 221 200 24 19 55 45 69 58 14 13 42 33 63 44 21 12 40 30 43 39 4
10 29 53 57 96 81 124 96 160 109 264 6 52 13 98 16 102 2 4 4 98 4 208 -1
197 17 397 41 461 6 15 28 43 49 62 21 19 74 75 117 123 44 48 97 107 119 130
21 23 47 51 57 62 17 19 35 80 55 198 10 54 0 108 -33 187 -17 37 -17 40 13
120 17 44 41 108 54 141 14 33 33 113 42 178 18 123 18 205 -5 482 -5 66 -9
183 -10 260 -1 271 -33 503 -81 598 -12 23 -41 59 -65 80 -23 20 -48 53 -54
72 -6 19 -23 44 -37 54 -13 11 -46 51 -73 89 -60 85 -169 185 -273 251 -43 27
-86 56 -95 64 -10 8 -31 22 -49 31 -40 20 -336 121 -428 146 -38 10 -86 25
-105 33 -19 8 -71 20 -115 26 -44 7 -89 17 -100 21 -33 14 -117 38 -155 44
-78 13 -325 13 -375 1z m572 -929 c34 -7 84 -11 112 -8 27 2 75 1 106 -3 66
-8 81 -27 44 -59 -13 -12 -55 -57 -94 -100 -127 -144 -196 -150 -441 -40 -67
29 -133 54 -148 54 -67 0 -196 -72 -196 -110 0 -6 22 -10 49 -10 l48 0 7 -38
c3 -22 15 -51 27 -66 21 -27 34 -36 292 -215 82 -57 152 -113 156 -124 20 -53
36 -215 36 -372 0 -195 -8 -226 -94 -358 -43 -65 -55 -76 -112 -102 -57 -27
-74 -30 -159 -29 -136 1 -194 20 -257 87 -27 29 -56 63 -63 76 -8 17 -14 112
-18 330 l-5 307 28 69 c23 60 27 79 23 141 -6 88 -26 125 -97 179 -29 22 -63
58 -76 79 l-23 38 32 55 c30 52 35 55 73 57 32 2 51 11 89 45 70 63 118 81
257 97 67 8 149 18 182 23 88 13 152 12 222 -3z m997 -17 c14 -17 26 -40 26
-51 0 -11 14 -32 30 -46 41 -36 40 -75 -6 -151 -30 -50 -35 -67 -29 -93 13
-63 22 -345 17 -533 -4 -149 -1 -213 12 -297 14 -86 15 -115 5 -146 -10 -36
-9 -78 6 -177 5 -29 -4 -87 -29 -200 -20 -87 -36 -176 -36 -197 0 -76 -42
-122 -160 -177 -177 -82 -321 -81 -514 4 -67 30 -105 82 -166 227 -38 94 -40
102 -40 205 0 60 0 122 -1 138 -3 92 15 214 44 285 25 61 31 90 31 155 1 69
-3 86 -26 129 -24 41 -28 60 -28 125 0 100 6 118 38 124 31 6 99 -21 124 -49
10 -12 30 -81 49 -169 31 -149 31 -151 23 -330 -5 -99 -9 -259 -9 -355 1 -160
3 -180 24 -235 30 -75 99 -148 156 -164 60 -17 126 -13 161 8 34 21 74 113 74
173 0 41 35 242 45 259 4 6 11 79 16 163 4 83 13 191 19 241 7 62 7 128 0 214
-5 68 -10 182 -10 253 0 118 -2 133 -25 176 -28 53 -32 84 -11 102 22 17 34
61 51 185 10 76 24 128 45 172 34 73 54 80 94 32z m-2263 -351 c24 -88 34
-144 34 -195 0 -93 -19 -121 -99 -146 -134 -43 -198 -186 -138 -307 27 -56 44
-67 127 -80 81 -13 145 -38 145 -56 0 -31 -26 -65 -64 -84 -23 -10 -72 -50
-109 -88 l-69 -69 -5 -121 c-11 -234 37 -270 283 -213 l102 24 -4 176 c-3 97
-11 219 -20 271 -13 77 -15 139 -9 335 6 232 11 272 42 344 13 31 16 33 51 26
49 -9 78 -28 98 -68 23 -43 32 -293 14 -392 -7 -38 -12 -81 -12 -95 10 -331 9
-374 -4 -475 -8 -60 -15 -125 -16 -144 -3 -31 -9 -38 -84 -81 -111 -63 -168
-80 -273 -80 -130 0 -210 21 -290 75 -77 51 -95 73 -112 139 -9 38 -9 54 5 95
9 28 16 64 16 81 0 43 21 90 72 155 24 32 52 71 62 87 l20 31 -63 55 c-71 62
-142 159 -161 216 -16 51 -9 122 20 182 28 58 147 179 228 232 31 20 63 44 70
52 26 30 50 97 57 160 8 74 10 80 34 80 14 0 25 -25 52 -122z m974 -1353 c57
-17 65 -26 65 -81 0 -22 3 -44 6 -47 4 -4 8 -23 9 -44 4 -50 10 -81 25 -118 6
-16 14 -84 17 -150 4 -90 10 -127 23 -150 20 -32 54 -154 46 -162 -12 -12 -91
-14 -131 -3 -85 24 -105 70 -130 300 -14 128 -21 160 -35 160 -9 0 -11 -23
-31 -270 -6 -80 -14 -156 -18 -169 -14 -48 -217 -77 -251 -36 -9 10 -5 28 15
77 14 36 32 108 40 169 35 258 45 309 68 346 12 21 28 50 34 65 23 53 64 109
86 118 34 14 109 12 162 -5z m-665 -286 c0 -12 -6 -35 -14 -52 -7 -18 -21 -88
-31 -156 -15 -107 -22 -132 -55 -190 -42 -74 -69 -94 -120 -87 -75 9 -87 19
-95 82 -4 31 -13 77 -21 103 -7 25 -14 74 -14 107 0 40 -7 78 -21 108 -11 26
-19 57 -17 69 3 19 9 22 46 20 85 -4 105 -35 122 -192 13 -117 26 -123 35 -15
17 209 17 208 50 215 17 4 54 7 83 8 47 1 52 -1 52 -20z m-285 -740 c4 -5 0
-18 -9 -28 -9 -10 -16 -33 -16 -53 0 -47 -19 -98 -36 -98 -35 0 -30 143 7 173
24 19 45 22 54 6z m1805 -150 c0 -86 -6 -109 -26 -109 -16 0 -21 20 -29 122
-5 67 -3 78 12 87 30 17 43 -14 43 -100z m-1699 51 c15 -9 19 -22 19 -71 0
-71 -12 -99 -44 -99 -45 0 -77 71 -68 153 3 24 8 27 38 27 20 0 44 -5 55 -10z
m1603 -36 c3 -9 6 -40 6 -69 0 -44 -4 -57 -22 -69 -12 -9 -33 -16 -45 -16 -22
0 -23 4 -23 69 0 50 4 74 16 85 20 21 60 21 68 0z m-1368 -30 c50 -24 55 -39
44 -135 -6 -46 -10 -90 -10 -96 0 -22 -39 -53 -65 -53 -40 0 -47 28 -40 158 4
64 8 123 10 130 6 16 20 15 61 -4z m1121 -96 c1 -51 -2 -108 -8 -126 -13 -41
-50 -66 -84 -58 -25 6 -25 8 -24 104 2 135 7 154 49 173 55 27 64 15 67 -93z
m-658 70 l30 -23 0 -126 c1 -151 -4 -162 -92 -184 -77 -20 -109 -19 -139 5
-22 17 -26 29 -30 96 -7 111 1 138 69 206 54 55 61 59 95 55 21 -3 51 -16 67
-29z m283 2 c23 -28 48 -145 48 -223 0 -50 -5 -72 -23 -98 -43 -64 -124 -86
-184 -49 -39 23 -49 56 -52 173 -3 96 0 103 82 189 34 37 41 40 75 35 20 -4
45 -16 54 -27z m210 -10 c-2 -14 -4 -63 -5 -110 -5 -146 -27 -197 -75 -171
-34 18 -40 35 -46 136 l-6 100 46 38 c54 44 91 47 86 7z m-1074 7 c13 -9 15
-86 4 -152 -9 -50 -31 -56 -56 -14 -15 26 -18 44 -13 97 8 76 24 94 65 69z
m1357 -71 c0 -63 -2 -71 -27 -89 -43 -32 -58 -18 -58 57 0 59 2 66 28 85 46
35 57 25 57 -53z m-1054 -106 c-2 -69 -8 -131 -13 -137 -11 -14 -46 -17 -72
-7 -13 5 -16 26 -16 125 0 111 1 119 23 134 12 9 36 14 52 13 l30 -3 -4 -125z
m-411 36 c0 -13 9 -35 21 -50 17 -22 19 -33 12 -64 -14 -60 -41 -50 -69 28
-33 90 -32 110 6 110 25 0 30 -4 30 -24z m1548 -88 c4 -41 -31 -124 -58 -138
-33 -18 -63 19 -64 76 -1 48 -1 49 49 76 28 15 55 26 60 24 6 -1 11 -19 13
-38z m-1401 -55 c21 -10 41 -22 45 -28 8 -11 3 -132 -8 -158 -10 -28 -47 -20
-71 16 -18 26 -23 47 -23 94 0 56 6 93 16 93 2 0 20 -8 41 -17z m1226 4 c3 -8
1 -47 -4 -88 -4 -41 -8 -77 -9 -81 0 -5 -9 -8 -21 -8 -26 0 -49 53 -49 114 0
39 4 47 28 60 34 19 48 20 55 3z m-123 -99 c0 -97 -10 -151 -34 -183 -12 -16
-19 -18 -41 -10 -42 15 -65 68 -65 148 0 67 0 68 29 73 16 4 42 19 57 35 47
49 54 40 54 -63z m-971 53 c15 -20 33 -31 60 -36 50 -8 55 -27 29 -113 -11
-37 -22 -77 -25 -90 -7 -29 -18 -35 -49 -28 -45 12 -64 60 -64 161 0 93 7 135
20 135 5 0 18 -13 29 -29z m787 -75 c1 -54 -4 -79 -27 -127 -16 -32 -33 -59
-39 -59 -14 0 -37 56 -46 108 -6 38 -3 44 42 96 27 31 54 54 59 53 6 -2 10
-34 11 -71z m-332 38 c38 -37 3 -279 -40 -279 -14 0 -21 10 -26 35 -28 151
-36 203 -31 216 5 13 53 41 75 43 4 1 14 -6 22 -15z m-198 -25 c50 -13 50 -13
28 -110 -24 -106 -56 -90 -95 48 -12 43 -8 73 11 73 6 0 31 -5 56 -11z m349
-50 c23 -18 -10 -219 -36 -219 -14 0 -38 86 -44 162 l-7 77 39 -6 c21 -3 43
-9 48 -14z"/>
<path d="M4923 6815 c5 -106 3 -142 -8 -170 -19 -45 -19 -126 0 -172 9 -20 15
-66 15 -108 0 -40 7 -105 16 -144 14 -63 20 -73 52 -93 76 -47 143 -21 184 71
27 58 48 421 29 490 -15 52 -80 125 -167 187 -34 24 -67 51 -74 59 -7 8 -22
15 -33 15 -19 0 -20 -4 -14 -135z"/>
</g>
</svg>
